<?xml version="1.0" encoding="UTF-8"?>
<svg id="Layer_1" xmlns="http://www.w3.org/2000/svg" version="1.1" viewBox="0 0 343.6 70">
  <!-- Generator: Adobe Illustrator 30.3.0, SVG Export Plug-In . SVG Version: 2.1.3 Build 182)  -->
  <path d="M12.3,49.6c0,2.2.8,4.1,2.4,5.7,1.6,1.6,3.5,2.4,5.7,2.4h103.1v12.3H20.4c-5.6,0-10.4-2-14.4-6S0,55.2,0,49.6s2.1-10.5,6.2-14.6C2.1,31,0,26.1,0,20.4S2,10,6,6,14.8,0,20.4,0h103.1v12.3H20.4c-1.5,0-2.8.4-4,1.1-1.2.7-2.2,1.7-3,3-.7,1.2-1.1,2.6-1.1,4,0,2.3.8,4.2,2.4,5.9,1.6,1.7,3.5,2.5,5.6,2.5h103.2v12.4H20.4c-2.2,0-4.1.8-5.7,2.5-1.6,1.7-2.4,3.6-2.4,5.9Z"/>
  <path d="M211.1,57.7v12.3h-49.5c-6.7,0-12.4-2.4-17.1-7.1-4.7-4.7-7.1-10.4-7.1-17.1V0h12.3v45.8c0,3.3,1.2,6.1,3.5,8.4,2.3,2.3,5.1,3.5,8.4,3.5h49.5Z"/>
  <path d="M304.1,70c-.5-1.5-1.3-4-2.2-7.5-.9-3.4-1.8-6.4-2.4-9s-1.7-5.7-2.9-9.4c-1.3-3.7-2.5-6.9-3.7-9.6-1.2-2.7-2.7-5.6-4.5-8.5-1.8-2.9-3.7-5.4-5.5-7.2-1.9-1.9-4.1-3.5-6.7-4.6-2.6-1.2-5.3-1.8-8.1-1.8s-5.5.6-8.1,1.8c-2.6,1.2-4.8,2.8-6.7,4.6-1.9,1.9-3.8,4.3-5.5,7.2-1.8,2.9-3.3,5.8-4.5,8.5-1.2,2.7-2.4,5.9-3.7,9.6-1.3,3.7-2.3,6.8-3,9.4-.7,2.6-1.6,5.6-2.5,9-.9,3.4-1.6,5.9-2.1,7.5h-13.2c.5-1.9,1.3-4.6,2.2-8.1,1-3.5,1.8-6.5,2.5-9,.7-2.5,1.6-5.6,2.8-9.2,1.2-3.6,2.3-6.8,3.3-9.4,1-2.6,2.3-5.5,3.9-8.8,1.5-3.2,3.1-6,4.7-8.2,1.6-2.3,3.5-4.6,5.6-6.9,2.2-2.3,4.4-4.2,6.8-5.6,2.4-1.4,5-2.6,8-3.5,3-.9,6.2-1.3,9.6-1.3s6.6.4,9.6,1.3c3,.9,5.7,2,8,3.5,2.3,1.4,4.6,3.3,6.8,5.6,2.2,2.3,4.1,4.6,5.7,6.9s3.1,5,4.7,8.2,2.9,6.1,3.9,8.8c1,2.6,2.1,5.8,3.2,9.4,1.1,3.6,2.1,6.7,2.8,9.2.7,2.5,1.5,5.5,2.5,9,.9,3.5,1.7,6.2,2.3,8.1h-13.2Z"/>
  <path d="M343.6,70h-12.3V0h12.3v70Z"/>
  <path d="M237.7,70c1.1-2.4,3.9-7.5,10.9-13,8.5-6.7,24.9-15,54.9-17.1v-11c-67.1,4.4-76.5,38.3-76.9,39.7l5.2,1.4h6Z"/>
</svg>